<?xml version="1.0" encoding="utf-8"?>
<!-- Generator: Adobe Illustrator 26.0.1, SVG Export Plug-In . SVG Version: 6.00 Build 0)  -->
<svg version="1.1" id="Camada_1" xmlns="http://www.w3.org/2000/svg" xmlns:xlink="http://www.w3.org/1999/xlink" x="0px" y="0px"
	 viewBox="0 0 95 48.8" style="enable-background:new 0 0 95 48.8;" xml:space="preserve">
<style type="text/css">
	.st0{fill-rule:evenodd;clip-rule:evenodd;fill:#0075BE;}
	.st1{fill:#1D1D1B;}
	.st2{fill-rule:evenodd;clip-rule:evenodd;fill:#1D1D1B;}
</style>
<g>
	<g>
		<polygon class="st0" points="7.5,18.4 11.3,20.5 15,22.7 15,27.1 15,31.4 11.3,33.6 7.5,35.7 3.8,33.6 0,31.4 0,27.1 0,22.7 
			3.8,20.5 		"/>
		<polygon class="st0" points="33.1,31.4 36.9,33.6 40.7,35.7 40.7,40.1 40.7,44.4 36.9,46.6 33.1,48.8 29.4,46.6 25.6,44.4 
			25.6,40.1 25.6,35.7 29.4,33.6 		"/>
		<polygon class="st0" points="33,0 37.5,2.6 42,5.2 42,10.4 42,15.6 37.5,18.2 33,20.9 28.5,18.2 23.9,15.6 23.9,10.4 23.9,5.2 
			28.5,2.6 		"/>
		<polygon class="st0" points="39.2,19.2 42.2,21 45.2,22.7 45.2,26.2 45.2,29.7 42.2,31.4 39.2,33.1 36.1,31.4 33.1,29.7 
			33.1,26.2 33.1,22.7 36.1,21 		"/>
		<polygon class="st0" points="19.6,34 21.8,35.3 24.1,36.6 24.1,39.2 24.1,41.8 21.8,43.1 19.6,44.4 17.3,43.1 15.1,41.8 
			15.1,39.2 15.1,36.6 17.3,35.3 		"/>
		<polygon class="st0" points="15.1,7.1 18.1,8.8 21.1,10.5 21.1,14 21.1,17.5 18.1,19.2 15.1,21 12,19.2 9,17.5 9,14 9,10.5 
			12,8.8 		"/>
	</g>
	<path class="st1" d="M50.4,9.9v8.6c0,1.6,0.2,3,0.7,4c0.5,1,1.2,1.8,2.1,2.3c0.9,0.5,2,0.7,3.3,0.7c1.3,0,2.5-0.3,3.5-0.8
		c1-0.5,1.7-1.3,2.2-2.3c0.5-1,0.8-2.4,0.8-3.9V9.9h-3.5v8.9c0,1.4-0.2,2.4-0.7,3c-0.5,0.7-1.2,1-2.1,1c-0.9,0-1.6-0.3-2.1-1
		c-0.5-0.7-0.7-1.7-0.7-3V9.9H50.4L50.4,9.9z M68.2,25.3h3.5v-6.2h5.5v-2.8h-5.5v-3.5h5.9V9.9h-9.4V25.3L68.2,25.3z M94.8,16.5h-5.8
		v2.7h2.4v3.2c-0.1,0.1-0.4,0.1-0.7,0.1c-0.3,0-0.6,0.1-1,0.1c-0.7,0-1.4-0.1-2-0.3c-0.6-0.2-1.1-0.6-1.5-1c-0.4-0.4-0.8-1-1-1.6
		c-0.2-0.6-0.4-1.3-0.4-2.1c0-0.8,0.1-1.6,0.4-2.2c0.3-0.6,0.6-1.2,1.1-1.6c0.5-0.4,1-0.7,1.6-0.9c0.6-0.2,1.3-0.3,2-0.3
		c0.6,0,1.1,0,1.5,0.1c0.4,0.1,0.8,0.1,1.2,0.2c0.3,0.1,0.6,0.2,0.9,0.3l0.7-2.8c-0.3-0.1-0.6-0.2-1-0.3c-0.4-0.1-0.9-0.2-1.5-0.3
		c-0.6-0.1-1.2-0.1-1.8-0.1c-1.3,0-2.4,0.2-3.5,0.5c-1.1,0.4-2,0.9-2.8,1.6c-0.8,0.7-1.4,1.5-1.8,2.5c-0.4,1-0.7,2.2-0.7,3.4
		c0,0.8,0.1,1.5,0.3,2.2c0.2,0.7,0.4,1.3,0.7,1.9c0.3,0.6,0.7,1.1,1.2,1.6c0.7,0.7,1.6,1.2,2.6,1.5c1,0.3,2.3,0.5,3.7,0.5
		c0.7,0,1.4-0.1,2-0.1c0.7-0.1,1.2-0.2,1.8-0.3c0.5-0.1,1-0.3,1.4-0.4V16.5z"/>
	<g>
		<path class="st2" d="M50.4,30.6v2c0,1.1,0.5,1.6,1.4,1.6c0.9,0,1.5-0.5,1.5-1.6v-2h-0.8v2c0,0.6-0.2,0.9-0.6,0.9
			c-0.4,0-0.6-0.3-0.6-0.9v-2H50.4L50.4,30.6z M55.5,34.1V33c0-0.6,0-1.1,0-1.5h0c0.2,0.4,0.4,0.9,0.6,1.2l0.7,1.4h0.8v-3.5H57v1
			c0,0.5,0,1,0.1,1.5h0c-0.2-0.4-0.4-0.8-0.6-1.2l-0.7-1.3h-0.9v3.5H55.5L55.5,34.1z M59.3,30.6v3.5h0.8v-3.5H59.3L59.3,30.6z
			 M63.4,34.1l1.2-3.5h-0.8l-0.4,1.5c-0.1,0.4-0.2,0.8-0.3,1.2h0c-0.1-0.4-0.2-0.8-0.3-1.3l-0.4-1.5h-0.9l1.1,3.5H63.4L63.4,34.1z
			 M67.9,31.9h-1.3v-0.7H68v-0.6h-2.2v3.5H68v-0.6h-1.4v-0.8h1.3V31.9L67.9,31.9z M69.5,34.1h0.8v-1.4h0.2c0.3,0,0.5,0.1,0.6,0.6
			c0.1,0.4,0.2,0.7,0.2,0.8h0.8c-0.1-0.1-0.2-0.6-0.3-1c-0.1-0.3-0.2-0.6-0.5-0.7v0c0.3-0.1,0.6-0.4,0.6-0.9c0-0.3-0.1-0.6-0.3-0.7
			c-0.2-0.2-0.6-0.3-1.1-0.3c-0.4,0-0.8,0-1.1,0.1V34.1L69.5,34.1z M70.2,31.2c0.1,0,0.2,0,0.4,0c0.4,0,0.6,0.2,0.6,0.5
			c0,0.3-0.2,0.5-0.6,0.5h-0.3V31.2L70.2,31.2z M73.3,33.9c0.2,0.1,0.6,0.2,1,0.2c1,0,1.4-0.5,1.4-1.1c0-0.5-0.3-0.8-0.9-1
			c-0.5-0.2-0.6-0.3-0.6-0.5c0-0.2,0.2-0.3,0.5-0.3c0.3,0,0.6,0.1,0.7,0.2l0.2-0.6c-0.2-0.1-0.5-0.2-0.9-0.2c-0.8,0-1.3,0.5-1.3,1
			c0,0.5,0.4,0.8,1,1c0.4,0.1,0.6,0.3,0.6,0.5c0,0.2-0.2,0.4-0.6,0.4c-0.3,0-0.7-0.1-0.9-0.2L73.3,33.9L73.3,33.9z M77.1,30.6v3.5
			h0.8v-3.5H77.1L77.1,30.6z M79.4,34.1c0.2,0,0.5,0.1,0.9,0.1c0.7,0,1.3-0.1,1.6-0.5c0.3-0.3,0.6-0.7,0.6-1.4
			c0-0.6-0.2-1.1-0.6-1.3c-0.3-0.3-0.8-0.4-1.4-0.4c-0.4,0-0.8,0-1.1,0.1V34.1L79.4,34.1z M80.2,31.2c0.1,0,0.2,0,0.4,0
			c0.7,0,1.1,0.4,1.1,1.1c0,0.8-0.5,1.2-1.2,1.2c-0.1,0-0.2,0-0.3,0V31.2L80.2,31.2z M85.8,33.2l0.3,0.9h0.9l-1.1-3.5h-1l-1.1,3.5
			h0.8l0.2-0.9H85.8L85.8,33.2z M84.9,32.6l0.2-0.7c0.1-0.2,0.1-0.5,0.2-0.7h0c0.1,0.2,0.1,0.5,0.2,0.7l0.2,0.7H84.9L84.9,32.6z
			 M88.2,34.1c0.2,0,0.5,0.1,0.9,0.1c0.7,0,1.3-0.1,1.6-0.5c0.3-0.3,0.6-0.7,0.6-1.4c0-0.6-0.2-1.1-0.6-1.3
			c-0.3-0.3-0.8-0.4-1.4-0.4c-0.4,0-0.8,0-1.1,0.1V34.1L88.2,34.1z M89,31.2c0.1,0,0.2,0,0.4,0c0.7,0,1.1,0.4,1.1,1.1
			c0,0.8-0.5,1.2-1.2,1.2c-0.1,0-0.2,0-0.3,0V31.2L89,31.2z M94.8,31.9h-1.3v-0.7h1.4v-0.6h-2.2v3.5h2.2v-0.6h-1.4v-0.8h1.3V31.9z"
			/>
		<path class="st2" d="M50.4,39.3h0.8v-1.4h1.3v-0.6h-1.3v-0.8h1.3v-0.6h-2.1V39.3L50.4,39.3z M55,37.1h-1.3v-0.7h1.4v-0.6H53v3.5
			h2.2v-0.6h-1.4v-0.8H55V37.1L55,37.1z M55.7,39.2c0.2,0,0.5,0.1,0.9,0.1c0.7,0,1.3-0.1,1.6-0.5c0.3-0.3,0.6-0.7,0.6-1.4
			c0-0.6-0.2-1.1-0.6-1.3c-0.3-0.3-0.8-0.4-1.4-0.4c-0.4,0-0.8,0-1.1,0.1V39.2L55.7,39.2z M56.5,36.4c0.1,0,0.2,0,0.4,0
			c0.7,0,1.1,0.4,1.1,1.1c0,0.8-0.5,1.2-1.2,1.2c-0.1,0-0.2,0-0.3,0V36.4L56.5,36.4z M61.4,37.1h-1.3v-0.7h1.4v-0.6h-2.2v3.5h2.2
			v-0.6h-1.4v-0.8h1.3V37.1L61.4,37.1z M62.1,39.3h0.8v-1.4h0.2c0.3,0,0.5,0.1,0.6,0.6c0.1,0.4,0.2,0.7,0.2,0.8h0.8
			c-0.1-0.1-0.2-0.6-0.3-1c-0.1-0.3-0.2-0.6-0.5-0.7v0c0.3-0.1,0.6-0.4,0.6-0.9c0-0.3-0.1-0.6-0.3-0.7c-0.3-0.2-0.6-0.3-1.1-0.3
			c-0.4,0-0.8,0-1.1,0.1V39.3L62.1,39.3z M62.9,36.3c0.1,0,0.2,0,0.4,0c0.4,0,0.6,0.2,0.6,0.5c0,0.3-0.2,0.5-0.6,0.5h-0.3V36.3
			L62.9,36.3z M67.1,38.4l0.3,0.9h0.9l-1.1-3.5h-1L65,39.3h0.8l0.2-0.9H67.1L67.1,38.4z M66.2,37.8l0.2-0.7c0.1-0.2,0.1-0.5,0.2-0.7
			h0c0.1,0.2,0.1,0.5,0.2,0.7l0.2,0.7H66.2L66.2,37.8z M68.6,39.3h2.2v-0.7h-1.4v-2.8h-0.8V39.3L68.6,39.3z M72.5,39.2
			c0.2,0,0.5,0.1,0.9,0.1c0.7,0,1.3-0.1,1.6-0.5c0.3-0.3,0.6-0.7,0.6-1.4c0-0.6-0.2-1.1-0.6-1.3c-0.3-0.3-0.8-0.4-1.4-0.4
			c-0.4,0-0.8,0-1.1,0.1V39.2L72.5,39.2z M73.3,36.4c0.1,0,0.2,0,0.4,0c0.7,0,1.1,0.4,1.1,1.1c0,0.8-0.5,1.2-1.2,1.2
			c-0.1,0-0.2,0-0.3,0V36.4L73.3,36.4z M78.2,37.1h-1.3v-0.7h1.4v-0.6h-2.2v3.5h2.2v-0.6h-1.4v-0.8h1.3V37.1L78.2,37.1z M83.5,37.3
			h-1.3v0.6h0.5v0.7c-0.1,0-0.2,0-0.4,0c-0.6,0-1.1-0.4-1.1-1.1c0-0.8,0.5-1.1,1.2-1.1c0.4,0,0.6,0.1,0.8,0.2l0.2-0.6
			c-0.2-0.1-0.5-0.2-1-0.2c-1.1,0-2,0.7-2,1.8c0,0.5,0.2,1,0.5,1.3c0.3,0.3,0.8,0.5,1.4,0.5c0.5,0,0.9-0.1,1.2-0.2V37.3L83.5,37.3z
			 M85.6,39.3c1,0,1.7-0.7,1.7-1.8c0-1-0.6-1.8-1.7-1.8c-1,0-1.7,0.8-1.7,1.8C84,38.5,84.6,39.3,85.6,39.3L85.6,39.3L85.6,39.3z
			 M85.6,38.7c-0.5,0-0.8-0.5-0.8-1.2c0-0.7,0.3-1.2,0.9-1.2c0.5,0,0.8,0.5,0.8,1.2C86.5,38.2,86.2,38.7,85.6,38.7L85.6,38.7
			L85.6,38.7z M87.9,35.8v3.5h0.8v-3.5H87.9L87.9,35.8z M91.1,38.4l0.3,0.9h0.9l-1.1-3.5h-1l-1.1,3.5h0.8l0.2-0.9H91.1L91.1,38.4z
			 M90.3,37.8l0.2-0.7c0.1-0.2,0.1-0.5,0.2-0.7h0c0.1,0.2,0.1,0.5,0.2,0.7l0.2,0.7H90.3L90.3,37.8z M90.8,34.9l-0.5,0.7H91l0.6-0.7
			H90.8L90.8,34.9z M92.6,39.1c0.2,0.1,0.6,0.2,1,0.2c1,0,1.4-0.5,1.4-1.1c0-0.5-0.3-0.8-0.9-1c-0.5-0.2-0.6-0.3-0.6-0.5
			c0-0.2,0.2-0.3,0.5-0.3c0.3,0,0.6,0.1,0.7,0.2l0.2-0.6c-0.2-0.1-0.5-0.2-0.9-0.2c-0.8,0-1.3,0.5-1.3,1c0,0.5,0.4,0.8,1,1
			c0.4,0.1,0.6,0.3,0.6,0.5c0,0.2-0.2,0.4-0.6,0.4c-0.3,0-0.7-0.1-0.9-0.2L92.6,39.1z"/>
	</g>
</g>
</svg>
